<svg width="207" height="212" viewBox="0 0 207 212" fill="none" xmlns="http://www.w3.org/2000/svg">
<circle cx="103.5" cy="108.5" r="103.5" fill="black"/>
<path d="M72.4531 156.625V168H70.1797V156.625H72.4531ZM75.2812 156.625V158.523H67.4062V156.625H75.2812ZM78.7969 159.547V168H76.6016V159.547H78.7969ZM76.5 157.359C76.5 157.021 76.6068 156.742 76.8203 156.523C77.0391 156.299 77.3307 156.188 77.6953 156.188C78.0651 156.188 78.3568 156.299 78.5703 156.523C78.7839 156.742 78.8906 157.021 78.8906 157.359C78.8906 157.693 78.7812 157.971 78.5625 158.195C78.349 158.414 78.0625 158.523 77.7031 158.523C77.3333 158.523 77.0391 158.414 76.8203 158.195C76.6068 157.971 76.5 157.693 76.5 157.359ZM82.7344 161.297V168H80.5391V159.547H82.6016L82.7344 161.297ZM82.4219 163.484L81.8203 163.5C81.8099 162.906 81.862 162.359 81.9766 161.859C82.0911 161.359 82.263 160.924 82.4922 160.555C82.7266 160.185 83.0208 159.898 83.375 159.695C83.7292 159.492 84.1432 159.391 84.6172 159.391C84.9245 159.391 85.2083 159.448 85.4688 159.562C85.7292 159.672 85.9557 159.846 86.1484 160.086C86.3411 160.32 86.4896 160.628 86.5938 161.008C86.6979 161.383 86.75 161.833 86.75 162.359V168H84.5625V162.625C84.5625 162.25 84.526 161.964 84.4531 161.766C84.3802 161.562 84.276 161.422 84.1406 161.344C84.0052 161.26 83.8385 161.219 83.6406 161.219C83.4323 161.219 83.25 161.276 83.0938 161.391C82.9375 161.505 82.8099 161.667 82.7109 161.875C82.6172 162.078 82.5443 162.318 82.4922 162.594C82.4453 162.87 82.4219 163.167 82.4219 163.484ZM86.5391 163.266L85.75 163.367C85.7396 162.81 85.7891 162.292 85.8984 161.812C86.0078 161.328 86.1771 160.906 86.4062 160.547C86.6354 160.182 86.9219 159.898 87.2656 159.695C87.6146 159.492 88.0182 159.391 88.4766 159.391C88.8203 159.391 89.1328 159.448 89.4141 159.562C89.6953 159.677 89.9349 159.862 90.1328 160.117C90.3359 160.367 90.4896 160.698 90.5938 161.109C90.7031 161.521 90.7578 162.021 90.7578 162.609V168H88.5625V162.617C88.5625 162.237 88.526 161.945 88.4531 161.742C88.3802 161.539 88.276 161.401 88.1406 161.328C88.0052 161.255 87.8438 161.219 87.6562 161.219C87.4688 161.219 87.3047 161.271 87.1641 161.375C87.0286 161.479 86.9141 161.625 86.8203 161.812C86.7266 161.995 86.6562 162.211 86.6094 162.461C86.5625 162.706 86.5391 162.974 86.5391 163.266ZM95.8125 168.156C95.2344 168.156 94.7214 168.068 94.2734 167.891C93.8307 167.714 93.4557 167.458 93.1484 167.125C92.8411 166.786 92.6068 166.378 92.4453 165.898C92.2839 165.419 92.2031 164.872 92.2031 164.258V163.562C92.2031 162.875 92.2812 162.273 92.4375 161.758C92.5938 161.237 92.8151 160.799 93.1016 160.445C93.388 160.091 93.7396 159.828 94.1562 159.656C94.5781 159.479 95.0547 159.391 95.5859 159.391C96.1172 159.391 96.5833 159.479 96.9844 159.656C97.3906 159.828 97.7266 160.089 97.9922 160.438C98.2578 160.781 98.4583 161.208 98.5938 161.719C98.7292 162.229 98.7969 162.823 98.7969 163.5V164.5H93.1328V162.961H96.6484V162.766C96.6484 162.422 96.612 162.135 96.5391 161.906C96.4661 161.672 96.3516 161.497 96.1953 161.383C96.0391 161.268 95.8307 161.211 95.5703 161.211C95.3516 161.211 95.1667 161.255 95.0156 161.344C94.8646 161.432 94.7448 161.57 94.6562 161.758C94.5677 161.945 94.5026 162.19 94.4609 162.492C94.4193 162.789 94.3984 163.146 94.3984 163.562V164.258C94.3984 164.648 94.4323 164.977 94.5 165.242C94.5677 165.503 94.6667 165.716 94.7969 165.883C94.9323 166.044 95.0964 166.161 95.2891 166.234C95.4818 166.302 95.7057 166.336 95.9609 166.336C96.3464 166.336 96.6927 166.268 97 166.133C97.3125 165.992 97.5781 165.802 97.7969 165.562L98.6719 166.891C98.5208 167.089 98.3125 167.286 98.0469 167.484C97.7812 167.682 97.4635 167.844 97.0938 167.969C96.724 168.094 96.2969 168.156 95.8125 168.156ZM108.125 156.625V168H105.914L102.344 160.883V168H100.172V156.625H102.352L105.953 163.82V156.625H108.125ZM113.266 168.156C112.688 168.156 112.174 168.068 111.727 167.891C111.284 167.714 110.909 167.458 110.602 167.125C110.294 166.786 110.06 166.378 109.898 165.898C109.737 165.419 109.656 164.872 109.656 164.258V163.562C109.656 162.875 109.734 162.273 109.891 161.758C110.047 161.237 110.268 160.799 110.555 160.445C110.841 160.091 111.193 159.828 111.609 159.656C112.031 159.479 112.508 159.391 113.039 159.391C113.57 159.391 114.036 159.479 114.438 159.656C114.844 159.828 115.18 160.089 115.445 160.438C115.711 160.781 115.911 161.208 116.047 161.719C116.182 162.229 116.25 162.823 116.25 163.5V164.5H110.586V162.961H114.102V162.766C114.102 162.422 114.065 162.135 113.992 161.906C113.919 161.672 113.805 161.497 113.648 161.383C113.492 161.268 113.284 161.211 113.023 161.211C112.805 161.211 112.62 161.255 112.469 161.344C112.318 161.432 112.198 161.57 112.109 161.758C112.021 161.945 111.956 162.19 111.914 162.492C111.872 162.789 111.852 163.146 111.852 163.562V164.258C111.852 164.648 111.885 164.977 111.953 165.242C112.021 165.503 112.12 165.716 112.25 165.883C112.385 166.044 112.549 166.161 112.742 166.234C112.935 166.302 113.159 166.336 113.414 166.336C113.799 166.336 114.146 166.268 114.453 166.133C114.766 165.992 115.031 165.802 115.25 165.562L116.125 166.891C115.974 167.089 115.766 167.286 115.5 167.484C115.234 167.682 114.917 167.844 114.547 167.969C114.177 168.094 113.75 168.156 113.266 168.156ZM119.383 159.547L120.43 161.695L121.328 159.547H123.648L121.484 163.68L123.734 168H121.398L120.328 165.773L119.305 168H116.961L119.109 163.703L117.039 159.547H119.383ZM128.836 165.969V159.547H131.031V168H128.969L128.836 165.969ZM129.086 164.227L129.695 164.211C129.695 164.779 129.641 165.305 129.531 165.789C129.422 166.268 129.258 166.685 129.039 167.039C128.82 167.393 128.547 167.669 128.219 167.867C127.891 168.06 127.503 168.156 127.055 168.156C126.711 168.156 126.393 168.099 126.102 167.984C125.815 167.865 125.568 167.68 125.359 167.43C125.151 167.174 124.987 166.849 124.867 166.453C124.753 166.052 124.695 165.57 124.695 165.008V159.547H126.891V165.031C126.891 165.26 126.911 165.458 126.953 165.625C126.995 165.786 127.052 165.919 127.125 166.023C127.198 166.128 127.284 166.203 127.383 166.25C127.482 166.292 127.594 166.312 127.719 166.312C128.062 166.312 128.333 166.224 128.531 166.047C128.734 165.865 128.878 165.617 128.961 165.305C129.044 164.987 129.086 164.628 129.086 164.227ZM136.375 165.719C136.375 165.573 136.326 165.443 136.227 165.328C136.128 165.214 135.971 165.096 135.758 164.977C135.544 164.852 135.26 164.714 134.906 164.562C134.521 164.406 134.18 164.245 133.883 164.078C133.586 163.911 133.333 163.727 133.125 163.523C132.922 163.32 132.768 163.089 132.664 162.828C132.56 162.568 132.508 162.271 132.508 161.938C132.508 161.578 132.573 161.247 132.703 160.945C132.839 160.638 133.031 160.37 133.281 160.141C133.531 159.906 133.836 159.724 134.195 159.594C134.56 159.458 134.969 159.391 135.422 159.391C136.057 159.391 136.602 159.503 137.055 159.727C137.513 159.945 137.865 160.253 138.109 160.648C138.354 161.044 138.477 161.505 138.477 162.031H136.289C136.289 161.844 136.26 161.677 136.203 161.531C136.146 161.38 136.052 161.263 135.922 161.18C135.797 161.096 135.628 161.055 135.414 161.055C135.258 161.055 135.117 161.089 134.992 161.156C134.872 161.224 134.776 161.315 134.703 161.43C134.635 161.539 134.602 161.669 134.602 161.82C134.602 161.935 134.625 162.036 134.672 162.125C134.724 162.214 134.805 162.299 134.914 162.383C135.023 162.466 135.169 162.555 135.352 162.648C135.539 162.737 135.768 162.836 136.039 162.945C136.602 163.154 137.062 163.378 137.422 163.617C137.786 163.857 138.057 164.138 138.234 164.461C138.411 164.779 138.5 165.172 138.5 165.641C138.5 166.016 138.427 166.357 138.281 166.664C138.141 166.971 137.935 167.237 137.664 167.461C137.393 167.685 137.068 167.857 136.688 167.977C136.312 168.096 135.893 168.156 135.43 168.156C134.747 168.156 134.172 168.021 133.703 167.75C133.234 167.479 132.88 167.133 132.641 166.711C132.401 166.284 132.281 165.841 132.281 165.383H134.359C134.37 165.664 134.422 165.885 134.516 166.047C134.615 166.203 134.747 166.312 134.914 166.375C135.081 166.438 135.266 166.469 135.469 166.469C135.672 166.469 135.839 166.443 135.969 166.391C136.104 166.333 136.206 166.247 136.273 166.133C136.341 166.013 136.375 165.875 136.375 165.719Z" fill="white"/>
<path d="M104 0L168.086 111H39.9141L104 0Z" fill="white"/>
</svg>
